<svg xmlns="http://www.w3.org/2000/svg" viewBox="0 0 64 64" role="img" aria-label="Patra">
  <rect width="64" height="64" rx="14" fill="#0f766e"/>
  <path d="M32 7c-13.4 6.7-18.7 19-16.4 29.6C17.5 47.9 24.2 57 32 63c7.8-6 14.5-15.1 16.4-26.4C50.7 26 45.4 13.7 32 7Z" fill="#f8f6f0"/>
  <path d="M32 7c-13.4 6.7-18.7 19-16.4 29.6C17.5 47.9 24.2 57 32 63V7Z" fill="#d7a82f" opacity="0.16"/>
  <path d="M32 14c-1.2 13-1.2 27.4 0 40" fill="none" stroke="#d7a82f" stroke-width="3" stroke-linecap="round"/>
  <g fill="none" stroke="#0f766e" stroke-width="2.6" stroke-linecap="round">
    <path d="M30.3 25.4c-5-.3-8.6-1.9-12.5-4.8"/>
    <path d="M33.7 25.4c5-.3 8.6-1.9 12.5-4.8"/>
    <path d="M30.3 36c-5.8-.4-10.3-2.1-14.5-5.3"/>
    <path d="M33.7 36c5.8-.4 10.3-2.1 14.5-5.3"/>
    <path d="M30.3 46.6c-4.8-.4-8.4-1.8-12-4.4"/>
    <path d="M33.7 46.6c4.8-.4 8.4-1.8 12-4.4"/>
  </g>
</svg>
