<svg xmlns="http://www.w3.org/2000/svg" viewBox="0 0 1200 300" role="img" aria-labelledby="t d" width="1200" height="300">
  <title id="t">Patra</title>
  <desc id="d">Patra — publish and share documents as shareable links, self-hosted.</desc>
  <defs>
    <linearGradient id="bg" x1="0" y1="0" x2="1200" y2="300" gradientUnits="userSpaceOnUse">
      <stop offset="0" stop-color="#0B1220"/>
      <stop offset="1" stop-color="#0F1E2E"/>
    </linearGradient>
    <linearGradient id="leaf" x1="36" y1="14" x2="92" y2="118" gradientUnits="userSpaceOnUse">
      <stop offset="0" stop-color="#2DD4BF"/>
      <stop offset="1" stop-color="#0F766E"/>
    </linearGradient>
  </defs>
  <rect x="0" y="0" width="1200" height="300" rx="28" fill="url(#bg)"/>

  <!-- Leaf mark -->
  <g transform="translate(78 56) scale(1.47)">
    <path d="M64 110 L64 122" fill="none" stroke="#0F766E" stroke-width="4" stroke-linecap="round"/>
    <path d="M64 11 C41 24 33 47 37 67 C40 88 51 106 64 117 C77 106 88 88 91 67 C95 47 87 24 64 11 Z" fill="url(#leaf)"/>
    <path d="M64 11 C41 24 33 47 37 67 C40 88 51 106 64 117 Z" fill="#0B5C56" opacity="0.18"/>
    <path d="M64 22 C62 50 62 82 64 106" fill="none" stroke="#FBBF24" stroke-width="3.2" stroke-linecap="round"/>
    <g fill="none" stroke="#FCD34D" stroke-width="2.4" stroke-linecap="round">
      <path d="M63 46 C56 45 51 43 46 39"/><path d="M65 46 C72 45 77 43 82 39"/>
      <path d="M63 64 C54 63 49 61 44 57"/><path d="M65 64 C74 63 79 61 84 57"/>
      <path d="M63 82 C56 81 52 80 48 77"/><path d="M65 82 C72 81 76 80 80 77"/>
    </g>
  </g>

  <!-- Wordmark + tagline -->
  <g font-family="Inter, ui-sans-serif, system-ui, -apple-system, 'Segoe UI', Roboto, sans-serif">
    <text x="332" y="138" font-size="104" font-weight="700" fill="#F8FAFC" letter-spacing="-2">Patra</text>
    <text x="335" y="196" font-size="33" font-weight="500" fill="#94A3B8">Publish &amp; share docs as shareable links — self-hosted.</text>
    <text x="335" y="240" font-size="24" font-weight="500" fill="#5EEAD4" letter-spacing="0.5">Git-backed · agent-friendly CLI · OpenAPI + llms.txt</text>
  </g>
</svg>
