<svg xmlns="http://www.w3.org/2000/svg" viewBox="0 0 980 180" role="img" aria-labelledby="title desc">
  <title id="title">Patra</title>
  <desc id="desc">Patra wordmark with a leaf-shaped document mark.</desc>
  <defs>
    <linearGradient id="mark-fill" x1="64" y1="18" x2="116" y2="148" gradientUnits="userSpaceOnUse">
      <stop offset="0" stop-color="#18B7A5"/>
      <stop offset="1" stop-color="#0E5F59"/>
    </linearGradient>
    <linearGradient id="gold" x1="54" y1="25" x2="126" y2="150" gradientUnits="userSpaceOnUse">
      <stop offset="0" stop-color="#FFE8A3"/>
      <stop offset="1" stop-color="#D7A82F"/>
    </linearGradient>
    <filter id="shadow" x="-20%" y="-20%" width="140%" height="150%" color-interpolation-filters="sRGB">
      <feDropShadow dx="0" dy="8" stdDeviation="8" flood-color="#0E3D3A" flood-opacity="0.16"/>
    </filter>
  </defs>

  <rect width="980" height="180" rx="32" fill="#F8F6F0"/>
  <path d="M183 34h653c56 0 92 33 92 72s-36 72-92 72H183c-56 0-92-33-92-72s36-72 92-72Z" fill="#FFFFFF" opacity="0.74"/>

  <g filter="url(#shadow)">
    <path d="M92 17C57 34 43 67 49 95c5 30 23 55 43 71 21-16 38-41 43-71 6-28-8-61-43-78Z" fill="url(#mark-fill)"/>
    <path d="M92 17C57 34 43 67 49 95c5 30 23 55 43 71V17Z" fill="#073F3B" opacity="0.22"/>
    <path d="M92 34c-3 35-3 73 0 111" fill="none" stroke="url(#gold)" stroke-width="5" stroke-linecap="round"/>
    <g fill="none" stroke="#F6D86A" stroke-width="4" stroke-linecap="round">
      <path d="M89 62c-12-1-21-5-30-12"/>
      <path d="M95 62c12-1 21-5 30-12"/>
      <path d="M89 87c-14-1-24-5-35-13"/>
      <path d="M95 87c14-1 24-5 35-13"/>
      <path d="M89 112c-12-1-21-5-30-11"/>
      <path d="M95 112c12-1 21-5 30-11"/>
    </g>
  </g>

  <text x="172" y="100" fill="#143B38" font-family="Inter, ui-sans-serif, system-ui, -apple-system, BlinkMacSystemFont, 'Segoe UI', sans-serif" font-size="68" font-weight="800">Patra</text>
  <text x="176" y="132" fill="#5F6F6B" font-family="Inter, ui-sans-serif, system-ui, -apple-system, BlinkMacSystemFont, 'Segoe UI', sans-serif" font-size="19" font-weight="600">Git-backed publishing and sharing for documents, drafts, and static sites</text>
</svg>
